<svg version="1.1" xmlns="http://www.w3.org/2000/svg" viewBox="0 0 481.478800483644 406.9065662447549" width="481.478800483644" height="406.9065662447549">
  <!-- svg-source:excalidraw -->
  
  <defs>
    <style class="style-fonts">
      @font-face {
        font-family: "Virgil";
        src: url("https://excalidraw.com/Virgil.woff2");
      }
      @font-face {
        font-family: "Cascadia";
        src: url("https://excalidraw.com/Cascadia.woff2");
      }
    </style>
    
  </defs>
  <rect x="0" y="0" width="481.478800483644" height="406.9065662447549" fill="#ffffff"/><g stroke-linecap="round"><g transform="translate(11.799886219352516 150.93880590723825) rotate(0 54.912109375 0.125)"><path d="M0.08 0.41 C18.42 0.34, 92.09 0.3, 110.56 0.47 M-1.34 -0.42 C16.86 -0.96, 91.33 -1.56, 110.01 -1.53" stroke="#1e1e1e" stroke-width="1" fill="none"/></g></g><mask/><g stroke-linecap="round"><g transform="translate(125.13972996935252 147.60286840723825) rotate(0 60.55078125 -1.564453125)"><path d="M1.16 -0.71 C2.19 -3.23, 4.58 -20.99, 5.85 -16.29 C7.11 -11.59, 4.6 29.64, 8.75 27.51 C12.89 25.37, 26.43 -28.72, 30.72 -29.11 C35.01 -29.49, 30.17 24.72, 34.51 25.2 C38.84 25.67, 51.93 -26.37, 56.73 -26.23 C61.53 -26.09, 59.56 25.98, 63.31 26.05 C67.07 26.13, 74.61 -24.68, 79.27 -25.77 C83.94 -26.86, 87.34 20.05, 91.28 19.5 C95.23 18.95, 99.08 -29.31, 102.95 -29.05 C106.82 -28.79, 111.48 16.98, 114.49 21.05 C117.51 25.12, 120.08 -0.66, 121.04 -4.65 M0.31 1.54 C1.2 -1.2, 2.99 -21.84, 4.8 -17.85 C6.62 -13.85, 6.8 27.21, 11.21 25.52 C15.62 23.83, 27.07 -28, 31.25 -28.01 C35.43 -28.01, 31.89 24.82, 36.29 25.48 C40.69 26.15, 53.13 -23.98, 57.66 -24 C62.18 -24.03, 59.98 25.71, 63.46 25.33 C66.94 24.96, 73.67 -25.04, 78.54 -26.24 C83.4 -27.44, 88.48 18.61, 92.67 18.14 C96.86 17.68, 99.98 -29.7, 103.68 -29.03 C107.37 -28.36, 112.16 18.23, 114.82 22.17 C117.47 26.11, 118.73 -1.19, 119.6 -5.39" stroke="#1e1e1e" stroke-width="1" fill="none"/></g></g><mask/><g stroke-linecap="round"><g transform="translate(245.70613621935252 141.39583715723825) rotate(0 21.919921875 0)"><path d="M0.66 0.17 C8.11 0.13, 36.55 -0.4, 43.75 -0.38 M-0.46 -0.79 C6.91 -0.65, 35.5 0.54, 42.76 0.96" stroke="#1e1e1e" stroke-width="1" fill="none"/></g></g><mask/><g stroke-linecap="round"><g transform="translate(289.1397299693525 120.21224340723825) rotate(0 0.16796875 18.701171875)"><path d="M1.18 -0.81 C1.57 5.58, 1.39 31.58, 1.35 38.07 M0.33 1.38 C0.74 7.45, 0.91 30.5, 0.94 36.29" stroke="#1e1e1e" stroke-width="1" fill="none"/></g></g><mask/><g stroke-linecap="round" transform="translate(291.9131674693525 109.54036840723825) rotate(0 64.515625 27.3203125)"><path d="M13.66 0 M13.66 0 C52.3 0.17, 95.67 1.48, 115.37 0 M13.66 0 C37.44 0.57, 62.78 -0.24, 115.37 0 M115.37 0 C126.15 0.04, 128.39 3.43, 129.03 13.66 M115.37 0 C124.14 2.02, 129.05 4.15, 129.03 13.66 M129.03 13.66 C129.5 20.72, 128.55 28.64, 129.03 40.98 M129.03 13.66 C128.5 20.91, 128.17 28.42, 129.03 40.98 M129.03 40.98 C129.16 51.62, 125.91 55.33, 115.37 54.64 M129.03 40.98 C128.01 51.48, 125.1 55.13, 115.37 54.64 M115.37 54.64 C81.98 55.58, 48.15 56.7, 13.66 54.64 M115.37 54.64 C79.87 54.48, 46.4 53.66, 13.66 54.64 M13.66 54.64 C4.3 56.54, 0 51.02, 0 40.98 M13.66 54.64 C4.51 52.95, 1.88 48.67, 0 40.98 M0 40.98 C-1.36 34.46, -0.21 27.81, 0 13.66 M0 40.98 C-0.57 32.99, -0.43 23.86, 0 13.66 M0 13.66 C-1.54 5.37, 4.17 -0.18, 13.66 0 M0 13.66 C1.84 5.98, 4.12 -1.85, 13.66 0" stroke="#1e1e1e" stroke-width="1" fill="none"/></g><g stroke-linecap="round"><g transform="translate(421.4405112193525 139.92318090723825) rotate(0 24.009765625 0)"><path d="M-0.19 -0.02 C7.66 -0.17, 38.95 -1.12, 46.96 -1.03 M-1.75 -1.07 C6.47 -1.11, 40.98 0.05, 49.11 -0.03" stroke="#1e1e1e" stroke-width="1" fill="none"/></g></g><mask/><g stroke-linecap="round"><g transform="translate(468.4991049693525 140.79427465723825) rotate(0 -0.408203125 83.841796875)"><path d="M0.8 -0.26 C0.63 27.35, -0.51 138.87, -0.67 166.83 M-0.24 -1.44 C-0.59 26.81, -1.49 139.56, -1.55 167.92" stroke="#1e1e1e" stroke-width="1" fill="none"/></g></g><mask/><g stroke-linecap="round"><g transform="translate(469.8389487193525 309.39974340723825) rotate(0 -87.01953125 -1.126953125)"><path d="M-0.37 -0.1 C-29.3 -0.47, -144.43 -1.1, -173.47 -1.33 M1.64 -1.2 C-27.41 -1.98, -144.56 -2.59, -174.12 -2.97" stroke="#1e1e1e" stroke-width="1" fill="none"/></g></g><mask/><g stroke-linecap="round"><g transform="translate(300.4483237193525 263.30989965723825) rotate(0 0.814453125 44.14453125)"><path d="M-0.32 -0.7 C-0.15 13.8, 0.17 72.5, 0.54 87.33 M1.71 1.54 C2.29 16.14, 2.75 73.68, 2.67 88.36" stroke="#1e1e1e" stroke-width="1" fill="none"/></g></g><mask/><g stroke-linecap="round"><g transform="translate(265.2569174693525 263.42318090723825) rotate(0 -0.240234375 47.80078125)"><path d="M0.63 -0.84 C0.48 15.12, -1.3 78.78, -1.35 94.68 M-0.5 1.33 C-0.24 17.51, 0.83 80.07, 0.91 95.73" stroke="#1e1e1e" stroke-width="1" fill="none"/></g></g><mask/><g stroke-linecap="round"><g transform="translate(262.4170737193525 307.75911840723825) rotate(0 -126.5859375 -0.99609375)"><path d="M1.19 1.19 C-40.8 0.7, -209.66 -2.84, -252.06 -3.19 M0.35 0.77 C-41.68 0.4, -210.03 -1.7, -252.42 -2.28" stroke="#1e1e1e" stroke-width="1" fill="none"/></g></g><mask/><g stroke-linecap="round"><g transform="translate(14.170979969352516 147.54036840723825) rotate(0 -1.3125 78.6796875)"><path d="M0.52 0.48 C0.18 26.73, -2.69 131.6, -3.2 157.76 M-0.66 -0.31 C-0.51 25.54, -0.35 129.33, -0.8 155.85" stroke="#1e1e1e" stroke-width="1" fill="none"/></g></g><mask/><g stroke-linecap="round"><g transform="translate(452.0733237193525 54.04427465723825) rotate(0 -77.22265625 83.669921875)"><path d="M0.51 0.18 C-25.12 28.07, -127.8 139.05, -153.71 167.11 M-0.67 -0.78 C-26.41 27.33, -128.39 140.6, -154.27 168.53" stroke="#e03131" stroke-width="1" fill="none"/></g></g><mask/><g stroke-linecap="round"><g transform="translate(283.7608237193525 10.192712157238248) rotate(0 71.44921875 108.123046875)"><path d="M-0.89 0.56 C22.71 36.53, 118.1 180.54, 141.98 216.57 M0.85 -0.19 C24.78 35.34, 120.79 178.81, 144.21 214.61" stroke="#e03131" stroke-width="1" fill="none"/></g></g><mask/><g stroke-linecap="round"><g transform="translate(365.0147299693525 244.10677465723825) rotate(0 -83.2421875 63.107421875)"><path d="M0.01 -0.4 C-27.77 20.82, -139.24 105.95, -167.04 126.94 M-1.44 -1.66 C-29.4 19.25, -140.57 103.84, -168.28 125.2" stroke="#e03131" stroke-width="1" fill="none"/></g></g><mask/><g stroke-linecap="round"><g transform="translate(213.59285496935252 235.54427465723825) rotate(0 76.9765625 80.107421875)"><path d="M-0.45 -0.7 C25.04 26.03, 128.29 134.56, 153.83 161.36 M1.51 1.55 C26.75 27.89, 127.22 133.2, 152.82 159.84" stroke="#e03131" stroke-width="1" fill="none"/></g></g><mask/></svg>