<svg version="1.1" xmlns="http://www.w3.org/2000/svg" viewBox="0 0 569.6623822015245 537.1903932031989" width="569.6623822015245" height="537.1903932031989">
  <!-- svg-source:excalidraw -->
  
  <defs>
    <style class="style-fonts">
      @font-face {
        font-family: "Virgil";
        src: url("https://excalidraw.com/Virgil.woff2");
      }
      @font-face {
        font-family: "Cascadia";
        src: url("https://excalidraw.com/Cascadia.woff2");
      }
    </style>
    
  </defs>
  <rect x="0" y="0" width="569.6623822015245" height="537.1903932031989" fill="#ffffff"/><g stroke-linecap="round"><g transform="translate(255.9257967878599 11.340421237079454) rotate(0 -1.479372180313021e-14 241.421875)"><path d="M1.18 -0.19 C0.91 80.25, -0.29 403.05, -0.69 483.44 M0.35 -1.34 C0.37 78.68, 1.55 400.9, 1.67 481.63" stroke="#1e1e1e" stroke-width="1" fill="none"/></g></g><mask/><g stroke-linecap="round"><g transform="translate(85.3242342878599 321.98495248707945) rotate(0 236.896484375 0)"><path d="M-1.06 1.05 C77.94 1.12, 395.21 0.69, 474.34 0.34 M0.58 0.56 C79.45 0.26, 394.96 -1.46, 473.68 -1.6" stroke="#1e1e1e" stroke-width="1" fill="none"/></g></g><mask/><g stroke-linecap="round"><g transform="translate(455.2382967878599 155.13338998707945) rotate(0 -221.99609375 185.44921875)"><path d="M-0.73 1.07 C-74.73 62.69, -370.43 309.01, -444.19 370.65 M1.08 0.58 C-73.06 62.31, -371.11 310.12, -445.24 372.06" stroke="#1e1e1e" stroke-width="1" fill="none"/></g></g><mask/><g stroke-linecap="round"><g transform="translate(132.7148592878599 194.21932748707945) rotate(0 137.58984375 137.58984375)"><path d="M0.74 0.16 C46.59 46.37, 228.8 230.32, 274.55 276.33 M-0.34 -0.8 C45.96 45.19, 231.12 228.94, 276.93 274.81" stroke="#1e1e1e" stroke-width="1" fill="none"/></g></g><mask/><g stroke-linecap="round" transform="translate(209.3203280378599 268.99276498707945) rotate(0 39.263671875 39.263671875)"><path d="M21.79 3.2 C27.93 -0.45, 37.7 -0.46, 45.47 0.9 C53.23 2.27, 63.01 5.92, 68.38 11.39 C73.76 16.86, 76.7 26.01, 77.7 33.72 C78.71 41.43, 77.93 50.92, 74.39 57.67 C70.86 64.42, 63.52 70.76, 56.48 74.21 C49.43 77.65, 39.74 79.56, 32.11 78.32 C24.49 77.09, 15.89 72.52, 10.75 66.8 C5.61 61.07, 2.31 51.54, 1.3 44 C0.29 36.46, 0.46 28.47, 4.7 21.57 C8.94 14.67, 22.09 5.85, 26.75 2.61 C31.4 -0.62, 32.44 1.64, 32.63 2.17 M31.11 0.79 C37.88 -1.23, 46.63 1.41, 53.5 4.48 C60.37 7.55, 68.12 12.98, 72.33 19.2 C76.53 25.43, 79.55 34.22, 78.75 41.82 C77.94 49.42, 72.52 59.07, 67.5 64.8 C62.48 70.54, 55.88 74.6, 48.63 76.22 C41.38 77.83, 31.4 77.57, 24.01 74.5 C16.62 71.44, 8.07 64.36, 4.3 57.8 C0.53 51.24, 0.49 42.34, 1.38 35.15 C2.27 27.96, 4.67 20.58, 9.65 14.65 C14.63 8.72, 27.62 1.84, 31.26 -0.43 C34.89 -2.69, 31.49 0.14, 31.48 1.06" stroke="none" stroke-width="0" fill="#ffffff"/><path d="M33.95 1.08 C40.86 -0.45, 49.77 0.9, 56.58 4.23 C63.38 7.55, 71.02 14.18, 74.76 21.04 C78.51 27.91, 80.49 37.94, 79.06 45.43 C77.63 52.91, 71.81 60.41, 66.18 65.98 C60.54 71.55, 52.63 77.48, 45.26 78.83 C37.89 80.19, 28.67 77.77, 21.95 74.11 C15.23 70.46, 8.58 63.59, 4.96 56.88 C1.34 50.17, -0.97 41.29, 0.22 33.87 C1.41 26.46, 6.28 18.08, 12.08 12.37 C17.89 6.66, 30.85 1.46, 35.05 -0.38 C39.25 -2.23, 36.97 0.61, 37.29 1.29 M20.34 4.69 C26.91 0.34, 38.62 -1.93, 46.24 -0.93 C53.87 0.08, 60.73 5.05, 66.08 10.74 C71.43 16.42, 76.67 25.58, 78.33 33.21 C79.98 40.83, 79.67 49.9, 76 56.47 C72.34 63.04, 63.3 68.89, 56.31 72.64 C49.32 76.39, 41.58 79.75, 34.09 78.97 C26.59 78.19, 17.07 73.53, 11.34 67.95 C5.6 62.36, 0.88 52.98, -0.31 45.43 C-1.49 37.88, 0.72 29.63, 4.22 22.65 C7.73 15.67, 17.99 6.7, 20.73 3.56 C23.47 0.43, 20.22 3.04, 20.66 3.82" stroke="#1e1e1e" stroke-width="1" fill="none"/></g><g stroke-linecap="round"><g transform="translate(232.70670281066396 317.23495248707945) rotate(0 18.921875 -0.787109375)"><path d="M-0.17 0.73 C5.92 0.28, 31.06 -1.97, 37.22 -2.36 M-1.72 0.07 C4.71 -0.28, 32.8 -1.17, 39.6 -1.24" stroke="#1e1e1e" stroke-width="1" fill="none"/></g></g><mask/><g stroke-linecap="round"><g transform="translate(247.0156405378599 287.02401498707945) rotate(0 0.458984375 27.30859375)"><path d="M-0.05 -0.52 C-0.02 8.69, 0.75 46.05, 0.95 55.23 M-1.54 1.82 C-1.73 10.67, -0.33 44.43, 0.03 53.42" stroke="#1e1e1e" stroke-width="1" fill="none"/></g></g><mask/></svg>