<svg version="1.1" xmlns="http://www.w3.org/2000/svg" viewBox="0 0 547.2766748117842 201.41684867016224" width="547.2766748117842" height="201.41684867016224">
  <!-- svg-source:excalidraw -->
  
  <defs>
    <style class="style-fonts">
      @font-face {
        font-family: "Virgil";
        src: url("https://excalidraw.com/Virgil.woff2");
      }
      @font-face {
        font-family: "Cascadia";
        src: url("https://excalidraw.com/Cascadia.woff2");
      }
    </style>
    
  </defs>
  <rect x="0" y="0" width="547.2766748117842" height="201.41684867016224" fill="#ffffff"/><g stroke-linecap="round" transform="translate(239.97198731178418 56.40430985120912) rotate(0 148.65234375 42.8828125)"><path d="M21.44 0 M21.44 0 C104.38 -0.76, 187.26 0.98, 275.86 0 M21.44 0 C92.52 -2.06, 164.3 -1.71, 275.86 0 M275.86 0 C288.76 0.32, 295.75 5.81, 297.3 21.44 M275.86 0 C291.4 0.66, 297.3 6.27, 297.3 21.44 M297.3 21.44 C297.66 35.02, 297.92 47.57, 297.3 64.32 M297.3 21.44 C297.82 35.3, 296.36 46.81, 297.3 64.32 M297.3 64.32 C296.52 78.7, 291.15 86.62, 275.86 85.77 M297.3 64.32 C298.19 80.25, 289.39 85.37, 275.86 85.77 M275.86 85.77 C197.89 87.76, 123.69 87.52, 21.44 85.77 M275.86 85.77 C219.7 86.6, 164.43 86.51, 21.44 85.77 M21.44 85.77 C7.58 87.03, -1.1 77.45, 0 64.32 M21.44 85.77 C7.65 87.16, -2.01 79.56, 0 64.32 M0 64.32 C-1.59 45.94, 1.13 32.1, 0 21.44 M0 64.32 C-0.63 49.81, 0.61 32.99, 0 21.44 M0 21.44 C1.62 8.91, 6.22 1.15, 21.44 0 M0 21.44 C1.78 8.46, 9.34 0.55, 21.44 0" stroke="#1e1e1e" stroke-width="1" fill="none"/></g><g stroke-linecap="round"><g transform="translate(10.729799811784176 109.73243485120912) rotate(0 251.40381936468694 -9.259141492945759)"><path d="M0.48 0.25 C6.32 -15.85, 25.88 -110.72, 35.49 -97.37 C45.1 -84.01, 47.98 80.48, 58.13 80.35 C68.29 80.23, 82.39 -96.67, 96.42 -98.12 C110.44 -99.56, 127.08 71.95, 142.27 71.68 C157.45 71.41, 172.34 -99.29, 187.52 -99.73 C202.69 -100.17, 217.46 54.7, 233.31 69.04 C249.15 83.38, 271.04 -5.81, 282.59 -13.71 C294.13 -21.6, 296.84 25.34, 302.59 21.67 C308.35 18, 309.93 -34.66, 317.12 -35.73 C324.3 -36.79, 336.27 15.13, 345.71 15.28 C355.16 15.44, 366.36 -35.52, 373.79 -34.79 C381.22 -34.06, 382.68 19.67, 390.28 19.67 C397.88 19.67, 410.2 -33.25, 419.38 -34.77 C428.56 -36.3, 434.72 9.26, 445.36 10.52 C456 11.77, 473.58 -26.69, 483.24 -27.24 C492.9 -27.78, 500.05 1.58, 503.32 7.22 M-0.73 -0.67 C4.93 -16.58, 24.99 -110.06, 34.66 -96.34 C44.33 -82.61, 46.98 81.8, 57.31 81.68 C67.64 81.57, 82.71 -95.35, 96.63 -97.03 C110.55 -98.72, 125.49 71.67, 140.82 71.58 C156.15 71.49, 173.05 -96.95, 188.59 -97.58 C204.14 -98.21, 218.47 53.77, 234.07 67.79 C249.67 81.81, 270.97 -5.64, 282.18 -13.46 C293.39 -21.27, 295.37 24.65, 301.33 20.89 C307.3 17.12, 310.55 -34.73, 317.97 -36.04 C325.39 -37.35, 336.26 12.82, 345.84 13.03 C355.41 13.24, 367.92 -35.79, 375.42 -34.81 C382.91 -33.83, 383.07 18.42, 390.8 18.91 C398.52 19.39, 412.63 -30.5, 421.78 -31.9 C430.93 -33.29, 435.26 10.08, 445.71 10.53 C456.16 10.97, 475.05 -28.84, 484.49 -29.21 C493.93 -29.58, 499.48 2.29, 502.34 8.32" stroke="#1e1e1e" stroke-width="1" fill="none"/></g></g><mask/></svg>